<?xml version="1.0" standalone="no"?>
<!DOCTYPE svg PUBLIC "-//W3C//DTD SVG 20010904//EN"
 "http://www.w3.org/TR/2001/REC-SVG-20010904/DTD/svg10.dtd">
<svg version="1.0" xmlns="http://www.w3.org/2000/svg"
 width="200.000000pt" height="200.000000pt" viewBox="0 0 200.000000 200.000000"
 preserveAspectRatio="xMidYMid meet">
<metadata>
Created by potrace 1.11, written by Peter Selinger 2001-2013
</metadata>
<g transform="translate(0.000000,200.000000) scale(0.100000,-0.100000)"
fill="#000000" stroke="none">
<path d="M0 1000 l0 -1000 1000 0 1000 0 0 1000 0 1000 -1000 0 -1000 0 0
-1000z m1072 695 l376 1 -1 -26 c-2 -22 2 -25 36 -28 32 -3 37 -7 37 -27 0
-28 42 -55 85 -55 21 0 25 -5 25 -30 0 -29 1 -30 48 -30 l47 0 3 -138 c2 -75
0 -255 -4 -400 l-6 -263 -27 -11 c-158 -63 -253 -82 -265 -53 -3 8 0 15 7 15
7 0 64 16 128 36 l116 36 7 61 c8 78 8 546 0 615 l-7 52 -48 0 c-49 0 -49 0
-49 33 0 29 -5 35 -35 46 -20 7 -45 26 -58 42 -18 25 -27 29 -54 26 -31 -4
-33 -3 -33 23 l0 28 -292 -1 c-161 -1 -346 2 -410 6 l-118 8 0 -30 c0 -28 -2
-30 -29 -25 -25 5 -35 0 -69 -35 -21 -22 -47 -41 -56 -41 -14 0 -17 -7 -14
-32 l3 -33 -52 3 c-29 2 -53 0 -53 -5 0 -4 9 -82 20 -173 11 -91 20 -175 20
-187 0 -24 -23 -32 -35 -12 -4 5 -15 85 -26 177 -10 92 -22 187 -25 211 l-7
43 52 -3 51 -4 0 33 c0 29 2 32 25 26 19 -5 32 2 61 30 21 20 31 36 23 36 -12
0 -12 2 0 9 8 5 25 7 38 5 20 -4 23 0 23 26 l0 31 83 -8 c45 -4 251 -8 459 -8z
m-238 -108 c17 -12 17 -14 2 -20 -10 -4 -16 -1 -16 8 0 8 -7 15 -15 15 -8 0
-15 -5 -15 -12 0 -6 -3 -9 -6 -5 -9 8 5 27 20 27 7 0 20 -6 30 -13z m60 5 c-6
-4 -14 -14 -17 -22 -4 -10 -6 -8 -6 8 -1 15 5 22 17 22 10 0 13 -3 6 -8z m37
1 c-11 -5 -11 -7 0 -15 12 -8 12 -9 0 -6 -22 6 -25 28 -4 27 12 0 14 -2 4 -6z
m42 -13 c-3 -11 -7 -20 -8 -20 -1 0 -5 9 -8 20 -3 12 0 20 8 20 8 0 11 -8 8
-20z m127 -5 c0 -8 -9 -13 -20 -12 -23 1 -25 8 -8 25 13 13 28 7 28 -13z m30
-3 c0 -15 -2 -15 -10 -2 -13 20 -13 33 0 25 6 -3 10 -14 10 -23z m51 15 c-6
-8 -8 -17 -4 -20 3 -4 2 -7 -4 -7 -17 0 -23 13 -12 27 6 7 16 13 21 13 7 0 6
-5 -1 -13z m-227 -93 c18 -18 20 -30 6 -39 -15 -9 -12 -19 11 -43 22 -25 18
-42 -11 -42 -12 0 -26 13 -35 30 -9 17 -20 30 -27 30 -6 0 -8 -11 -4 -30 5
-28 3 -30 -24 -30 -28 0 -30 3 -30 38 0 20 -6 49 -14 64 -14 27 -14 27 22 31
76 8 91 7 106 -9z m139 6 c32 0 46 -24 29 -50 -8 -14 -7 -22 7 -37 22 -23 16
-43 -14 -43 -16 0 -25 7 -29 24 -3 13 -13 27 -22 30 -14 5 -16 1 -11 -24 6
-28 4 -30 -22 -30 -27 0 -29 3 -28 38 1 20 -2 52 -7 71 l-8 34 38 -6 c22 -4
52 -7 67 -7z m-306 -65 c35 -55 39 -65 23 -65 -10 0 -26 -3 -36 -7 -14 -5 -16
-2 -12 15 5 17 2 22 -14 22 -15 0 -18 -5 -13 -21 6 -17 3 -20 -17 -17 -22 3
-23 6 -19 63 3 56 12 75 36 75 6 0 29 -30 52 -65z m450 48 c-1 -10 3 -19 8
-20 6 -1 9 5 7 13 -2 10 6 14 28 14 38 0 38 -10 -1 -39 -27 -20 -31 -28 -26
-57 5 -28 3 -34 -11 -33 -30 1 -57 15 -44 23 19 11 14 36 -13 72 -14 18 -25
35 -25 38 0 3 18 6 40 6 32 0 39 -3 37 -17z m-652 -29 c1 -40 17 -84 31 -84 8
0 14 9 14 20 0 27 29 25 39 -2 12 -30 5 -36 -54 -43 l-50 -7 -11 44 c-7 23
-15 53 -19 65 -5 16 -2 22 12 26 28 7 38 2 38 -19z m762 10 c3 -9 -2 -23 -12
-32 -17 -16 -17 -16 -12 0 3 10 2 20 -4 23 -11 7 -3 25 12 25 5 0 12 -7 16
-16z m100 -6 c18 -7 33 -18 33 -25 0 -17 -10 -16 -34 2 -22 17 -36 19 -36 6 0
-5 13 -14 30 -21 38 -16 48 -46 23 -72 -18 -17 -24 -18 -66 -7 -28 7 -47 17
-47 25 0 17 12 18 27 3 6 -6 21 -9 34 -7 22 3 21 5 -13 25 -36 21 -51 57 -31
76 10 11 43 8 80 -5z m-152 -148 c97 -12 158 -35 163 -62 8 -44 -83 -82 -278
-114 -110 -18 -283 -15 -345 6 -28 9 -27 10 10 5 22 -3 83 -8 135 -12 170 -10
470 58 470 107 0 17 -45 40 -101 50 -77 15 -474 22 -599 11 -58 -5 -117 -15
-132 -22 -45 -20 -36 -46 25 -74 56 -27 52 -34 -6 -10 -39 16 -68 50 -61 70 8
20 58 37 127 45 98 11 493 11 592 0z m-351 -46 c-4 -17 -2 -29 7 -36 11 -7 11
-11 2 -15 -15 -6 -17 -43 -3 -43 6 0 10 -4 10 -9 0 -5 -9 -7 -20 -4 -14 4 -20
14 -20 32 0 14 -3 43 -6 64 -6 33 -4 37 15 37 18 0 20 -4 15 -26z m120 20 c17
-7 22 -34 6 -34 -5 0 -10 5 -10 10 0 6 -4 10 -10 10 -18 0 -10 -29 11 -40 29
-16 23 -74 -9 -78 -13 -2 -25 3 -28 13 -10 24 4 31 21 9 14 -18 14 -18 15 3 0
12 -9 27 -20 33 -13 7 -20 21 -20 39 0 39 11 48 44 35z m66 -30 c0 -14 4 -22
10 -19 6 3 10 15 10 26 0 10 5 19 10 19 6 0 10 -27 10 -60 0 -33 -4 -60 -10
-60 -5 0 -10 11 -10 25 0 14 -4 25 -10 25 -5 0 -10 -11 -10 -25 0 -14 -4 -25
-10 -25 -6 0 -10 29 -10 66 0 41 4 63 10 59 6 -3 10 -17 10 -31z m-335 -8 c4
-19 5 -42 2 -53 -3 -15 -6 -13 -15 10 -14 34 -16 77 -2 77 5 0 12 -15 15 -34z
m86 32 c0 -2 3 -29 5 -61 3 -38 1 -56 -6 -52 -5 3 -10 15 -10 26 0 10 -4 19
-10 19 -5 0 -10 -9 -10 -20 0 -11 -4 -20 -9 -20 -11 0 -21 36 -21 78 0 29 3
32 30 32 17 0 30 -1 31 -2z m374 -48 c0 -40 -3 -45 -24 -48 -28 -4 -41 12 -41
54 0 38 7 46 40 42 23 -3 25 -7 25 -48z m-525 4 c0 -41 -16 -38 -22 6 -3 20 0
30 9 30 8 0 13 -13 13 -36z m604 30 c21 -8 20 -33 -1 -41 -10 -4 -23 -14 -30
-22 -10 -13 -12 -9 -13 27 0 43 8 50 44 36z m-547 -110 c-3 -3 -12 -4 -19 -1
-8 3 -5 6 6 6 11 1 17 -2 13 -5z m-184 -31 c-5 -13 -2 -15 13 -9 14 5 16 4 7
-5 -15 -15 -33 -3 -33 22 0 11 4 18 10 14 5 -3 6 -13 3 -22z m847 23 c0 -2 3
-13 6 -23 5 -17 5 -17 -6 0 -14 22 -30 22 -30 0 0 -9 -3 -14 -6 -10 -11 10 4
37 21 37 8 0 15 -2 15 -4z m-782 -42 c-3 -16 -4 -15 -18 1 -9 11 -10 16 -2 11
8 -5 12 -1 13 11 0 10 3 13 6 6 2 -7 3 -20 1 -29z m39 -6 c-3 -7 -5 -2 -5 12
0 14 2 19 5 13 2 -7 2 -19 0 -25z m693 2 c0 -4 -9 -10 -20 -13 -14 -4 -20 0
-20 12 0 10 3 21 7 24 7 7 33 -11 33 -23z m-60 11 c0 -5 -9 -7 -20 -4 -11 3
-20 7 -20 9 0 2 9 4 20 4 11 0 20 -4 20 -9z m-58 -26 c3 -13 2 -22 -2 -20 -11
7 -20 45 -10 45 4 0 10 -11 12 -25z m-28 0 c3 -8 1 -15 -4 -15 -6 0 -10 7 -10
15 0 8 2 15 4 15 2 0 6 -7 10 -15z m-387 -17 c-3 -8 -6 -5 -6 6 -1 11 2 17 5
13 3 -3 4 -12 1 -19z m285 -3 c-2 -14 -6 -25 -7 -25 -1 0 -5 11 -7 25 -3 16
-1 25 7 25 8 0 10 -9 7 -25z m42 -17 c7 -5 5 -8 -6 -8 -13 0 -18 7 -17 28 1
21 2 22 6 7 3 -11 10 -23 17 -27z m-248 -3 c-3 -8 -11 -15 -18 -14 -10 0 -10
2 0 6 6 2 12 14 13 26 0 12 3 16 6 9 3 -7 2 -19 -1 -27z m62 24 c-2 -3 3 -13
10 -22 16 -19 -4 -36 -21 -18 -9 9 -7 11 8 6 18 -6 17 -5 -3 12 -13 10 -20 22
-16 26 9 8 27 5 22 -4z m54 -16 c-5 -23 -7 -25 -10 -8 -2 11 -9 23 -16 27 -6
5 -3 8 10 8 18 0 20 -4 16 -27z m55 5 c9 -20 8 -23 -13 -23 -27 0 -33 15 -6
16 10 0 12 3 5 6 -15 5 -18 23 -5 23 5 0 13 -10 19 -22z m-753 -60 c5 -29 3
-44 -6 -50 -9 -5 -9 -8 -1 -8 7 0 13 -26 15 -75 2 -55 0 -75 -9 -75 -7 0 -14
-6 -14 -12 -2 -20 -17 73 -18 109 -1 27 2 31 17 26 15 -5 15 -4 -2 9 -12 10
-20 32 -24 66 -4 47 -3 52 15 52 16 0 22 -9 27 -42z m303 16 c-3 -3 -12 -4
-19 -1 -8 3 -5 6 6 6 11 1 17 -2 13 -5z m510 -20 c-3 -3 -12 -4 -19 -1 -8 3
-5 6 6 6 11 1 17 -2 13 -5z m-487 -14 c26 -14 42 -47 35 -70 -5 -15 -15 -20
-45 -20 -21 0 -42 5 -45 10 -4 6 6 10 24 10 16 0 33 5 37 12 5 8 2 9 -9 5 -26
-10 -67 10 -67 32 0 29 36 39 70 21z m358 3 c-10 -2 -26 -2 -35 0 -10 3 -2 5
17 5 19 0 27 -2 18 -5z m280 -53 c1 -47 -1 -50 -24 -50 -14 0 -23 5 -21 13 1
7 -8 12 -20 11 -29 -1 -29 8 3 45 40 48 60 42 62 -19z m112 40 c0 -5 -11 -10
-25 -10 -14 0 -25 -4 -25 -10 0 -5 6 -7 13 -4 7 2 21 -2 32 -10 16 -12 18 -18
9 -33 -13 -21 -71 -30 -87 -14 -8 8 0 11 27 11 44 0 46 23 3 28 -28 3 -31 9
-21 36 7 18 74 23 74 6z m-665 -55 c0 -16 6 -20 35 -18 28 2 31 0 15 -7 -31
-13 -52 -11 -70 7 -16 16 -16 17 1 30 10 7 12 13 6 13 -7 0 -12 8 -12 18 1 15
2 14 12 -3 7 -11 12 -29 13 -40z m147 38 c27 -24 22 -36 -7 -17 -14 9 -31 14
-40 11 -8 -4 -17 -2 -20 3 -5 9 10 18 34 19 8 1 23 -6 33 -16z m308 6 c0 -21
-45 -88 -62 -93 -23 -5 -23 1 2 42 26 42 25 45 -5 38 -24 -6 -33 3 -18 17 11
11 83 8 83 -4z m-109 -6 c0 -5 2 -19 4 -33 5 -38 -3 -57 -27 -63 -35 -10 -57
9 -55 46 2 17 6 38 10 45 9 13 66 17 68 5z m-223 -51 c-16 -9 -28 -20 -28 -25
0 -4 -5 -5 -10 -2 -17 10 24 42 55 44 6 0 -2 -7 -17 -17z m117 -12 c3 -6 -1
-7 -9 -4 -18 7 -21 14 -7 14 6 0 13 -4 16 -10z m562 -16 c-3 -3 -12 -4 -19 -1
-8 3 -5 6 6 6 11 1 17 -2 13 -5z m-414 -41 c-7 -2 -21 -2 -30 0 -10 3 -4 5 12
5 17 0 24 -2 18 -5z m-767 -97 c23 2 32 0 28 -8 -4 -6 -3 -8 4 -4 11 7 256
-54 339 -86 29 -11 51 -24 48 -29 -4 -5 4 -8 17 -7 13 1 58 -11 100 -25 85
-30 113 -32 189 -16 41 9 53 9 60 -2 6 -10 -7 -18 -54 -31 -78 -23 -135 -17
-224 23 -38 17 -111 44 -163 60 -52 17 -104 34 -115 39 -11 5 -38 12 -60 15
-44 6 -41 5 -142 35 -55 16 -73 25 -72 38 0 9 3 12 5 6 2 -6 20 -9 40 -8z
m574 -50 c0 -3 -4 -8 -10 -11 -5 -3 -10 -1 -10 4 0 6 5 11 10 11 6 0 10 -2 10
-4z m200 0 c0 -3 -4 -8 -10 -11 -5 -3 -10 -1 -10 4 0 6 5 11 10 11 6 0 10 -2
10 -4z m214 -62 c8 -21 -1 -34 -23 -34 -24 0 -35 37 -12 43 28 8 29 7 35 -9z
m-59 -22 c0 -13 -49 -36 -101 -49 -29 -7 -42 16 -18 31 58 34 119 43 119 18z"/>
<path d="M880 1464 c0 -9 7 -14 17 -12 25 5 28 28 4 28 -12 0 -21 -6 -21 -16z"/>
<path d="M1050 1465 c0 -8 7 -15 15 -15 8 0 15 7 15 15 0 8 -7 15 -15 15 -8 0
-15 -7 -15 -15z"/>
<path d="M840 1263 c0 -5 5 -15 10 -23 8 -12 10 -11 10 8 0 12 -4 22 -10 22
-5 0 -10 -3 -10 -7z"/>
<path d="M1221 1231 c-1 -34 2 -42 11 -33 8 8 8 20 1 44 l-11 33 -1 -44z"/>
<path d="M1310 1246 c0 -9 5 -16 10 -16 6 0 10 4 10 9 0 6 -4 13 -10 16 -5 3
-10 -1 -10 -9z"/>
<path d="M1370 1110 c0 -5 5 -10 11 -10 5 0 7 5 4 10 -3 6 -8 10 -11 10 -2 0
-4 -4 -4 -10z"/>
<path d="M650 956 c0 -10 9 -16 21 -16 24 0 21 23 -4 28 -10 2 -17 -3 -17 -12z"/>
<path d="M1270 935 c-10 -12 -10 -15 4 -15 9 0 16 7 16 15 0 8 -2 15 -4 15 -2
0 -9 -7 -16 -15z"/>
<path d="M1076 941 c-4 -5 -2 -12 3 -15 5 -4 12 -2 15 3 4 5 2 12 -3 15 -5 4
-12 2 -15 -3z"/>
<path d="M1070 884 c0 -9 5 -14 12 -12 18 6 21 28 4 28 -9 0 -16 -7 -16 -16z"/>
</g>
</svg>
